<svg id="svg" version="1.1" xmlns="http://www.w3.org/2000/svg" xmlns:xlink="http://www.w3.org/1999/xlink" width="400" height="400" viewBox="0, 0, 400,400"><g id="svgg"><path id="path0" d="M0.000 200.000 L 0.000 400.000 200.000 400.000 L 400.000 400.000 400.000 200.000 L 400.000 0.000 200.000 0.000 L 0.000 0.000 0.000 200.000 M266.408 49.200 C 266.910 49.994,266.905 52.535,266.401 53.039 C 266.182 53.258,265.305 54.869,264.452 56.619 C 263.599 58.369,262.550 60.196,262.121 60.680 C 261.692 61.163,261.148 62.243,260.911 63.080 C 260.256 65.392,259.586 68.024,259.199 69.800 C 259.008 70.680,258.556 72.570,258.196 74.000 C 257.836 75.430,257.297 77.860,257.000 79.400 C 256.702 80.940,256.165 83.370,255.807 84.800 C 255.448 86.230,254.999 88.300,254.808 89.400 C 254.617 90.500,254.181 92.300,253.840 93.400 C 253.048 95.953,252.548 97.993,251.977 101.000 C 251.540 103.299,250.976 105.059,249.760 107.914 C 249.452 108.636,249.200 109.790,249.200 110.478 C 249.200 111.167,248.945 112.646,248.634 113.765 C 247.386 118.256,246.310 122.725,245.930 125.000 C 245.710 126.320,245.366 127.571,245.165 127.780 C 244.964 127.989,244.800 128.529,244.801 128.980 C 244.802 129.795,244.399 131.718,242.783 138.600 C 242.319 140.580,241.771 143.003,241.566 143.984 C 241.361 144.964,241.015 145.945,240.796 146.164 C 240.578 146.382,240.400 147.076,240.400 147.706 C 240.400 148.337,240.187 149.246,239.926 149.726 C 239.666 150.207,239.321 151.320,239.161 152.200 C 239.001 153.080,238.307 156.320,237.619 159.400 C 236.932 162.480,236.155 166.035,235.893 167.300 C 235.631 168.565,235.278 169.600,235.108 169.600 C 234.939 169.600,234.796 170.185,234.790 170.900 C 234.785 171.615,234.590 173.010,234.358 174.000 C 234.126 174.990,233.905 176.518,233.868 177.395 C 233.768 179.748,232.745 180.098,225.464 180.276 L 219.509 180.421 217.855 181.754 C 216.945 182.488,215.218 183.755,214.018 184.570 C 212.817 185.385,210.786 187.030,209.503 188.226 C 208.221 189.422,207.040 190.400,206.879 190.400 C 206.718 190.400,205.779 191.165,204.793 192.100 C 203.807 193.035,202.594 194.070,202.097 194.400 C 200.711 195.321,200.398 199.313,201.528 201.664 C 201.987 202.619,202.555 204.270,202.791 205.334 C 203.026 206.398,203.688 208.378,204.262 209.734 C 204.836 211.090,205.358 212.947,205.422 213.859 C 205.485 214.772,205.801 216.032,206.123 216.659 C 206.446 217.287,207.006 218.970,207.370 220.400 C 207.733 221.830,208.473 224.111,209.015 225.468 C 209.557 226.826,210.000 228.478,210.000 229.140 C 210.000 229.801,210.284 230.627,210.631 230.974 C 210.978 231.321,211.582 232.949,211.973 234.592 C 212.365 236.235,212.868 237.809,213.092 238.090 C 213.316 238.370,213.583 239.525,213.686 240.656 C 213.835 242.285,214.188 243.094,215.385 244.556 L 216.896 246.400 243.474 246.400 C 260.193 246.400,270.326 246.546,270.790 246.795 C 271.490 247.169,271.517 248.800,270.823 248.800 C 270.574 248.800,267.746 250.851,264.800 253.168 C 264.250 253.601,262.810 254.623,261.600 255.439 C 260.390 256.256,258.590 257.583,257.600 258.389 C 256.610 259.195,255.167 260.236,254.393 260.702 C 253.619 261.168,252.553 262.011,252.023 262.575 C 251.494 263.139,250.829 263.600,250.546 263.600 C 250.263 263.600,249.674 263.984,249.237 264.452 C 248.433 265.315,247.343 266.030,245.693 266.776 C 245.194 267.001,244.384 267.550,243.893 267.997 C 242.564 269.204,239.662 271.420,237.400 272.955 C 236.300 273.702,234.967 274.692,234.439 275.156 C 233.910 275.620,233.075 276.000,232.582 276.000 C 231.967 276.000,231.610 276.305,231.442 276.973 C 231.308 277.509,230.884 278.047,230.499 278.169 C 227.775 279.035,226.970 282.048,228.613 285.224 C 229.252 286.461,230.672 291.655,231.286 295.000 C 231.533 296.351,232.114 297.870,232.616 298.475 C 233.125 299.090,233.685 300.570,233.926 301.939 C 234.158 303.253,234.719 305.145,235.174 306.142 C 235.628 307.140,236.008 308.191,236.017 308.478 C 236.026 308.765,236.489 310.260,237.046 311.800 C 237.602 313.340,238.328 315.678,238.659 316.995 C 238.989 318.312,239.429 319.594,239.635 319.843 C 239.842 320.091,240.355 321.534,240.775 323.047 C 241.195 324.561,242.013 327.052,242.592 328.581 C 243.203 330.193,243.550 331.746,243.417 332.275 C 243.008 333.904,239.702 334.089,239.015 332.522 C 238.803 332.040,237.948 331.337,237.115 330.962 C 236.282 330.586,235.600 330.151,235.600 329.996 C 235.600 329.840,234.601 329.050,233.381 328.240 C 232.161 327.430,231.061 326.504,230.938 326.183 C 230.815 325.862,230.495 325.600,230.227 325.600 C 229.708 325.600,226.046 322.966,223.400 320.690 C 222.520 319.932,221.374 319.090,220.853 318.817 C 219.689 318.208,215.308 314.898,214.995 314.391 C 214.869 314.189,213.939 313.657,212.927 313.209 C 211.915 312.761,210.706 311.991,210.240 311.498 C 209.774 311.004,208.721 310.150,207.899 309.600 C 207.078 309.050,206.404 308.465,206.403 308.300 C 206.401 308.135,206.200 308.000,205.955 308.000 C 205.519 308.000,201.838 305.450,199.345 303.421 C 197.908 302.252,196.213 302.090,195.665 303.070 C 195.458 303.439,194.594 304.241,193.745 304.853 C 191.692 306.332,180.596 314.038,179.423 314.800 C 178.915 315.130,177.027 316.570,175.229 318.000 C 171.135 321.254,167.831 323.742,165.936 324.996 C 165.130 325.529,164.014 326.423,163.454 326.982 C 162.894 327.542,162.063 328.000,161.606 328.000 C 161.149 328.000,160.671 328.270,160.545 328.600 C 160.418 328.930,160.149 329.200,159.947 329.200 C 159.744 329.200,158.378 330.190,156.912 331.400 C 151.251 336.069,150.193 334.290,153.479 325.624 C 154.016 324.208,154.556 322.138,154.679 321.024 C 154.802 319.911,155.234 318.370,155.639 317.600 C 156.440 316.076,157.677 311.536,157.506 310.745 C 157.448 310.475,157.895 310.007,158.500 309.705 C 159.462 309.225,159.600 308.925,159.600 307.310 C 159.600 306.294,159.849 305.179,160.153 304.831 C 160.457 304.484,161.010 302.940,161.382 301.400 C 161.754 299.860,162.412 297.856,162.843 296.946 C 163.274 296.036,163.795 294.262,163.999 293.004 C 164.204 291.746,164.537 290.510,164.740 290.258 C 164.942 290.006,165.473 288.360,165.920 286.600 C 166.367 284.840,167.011 282.747,167.352 281.949 C 168.049 280.313,167.805 279.907,165.400 278.689 C 164.740 278.354,163.570 277.519,162.800 276.832 C 160.209 274.522,159.318 273.803,158.299 273.200 C 155.832 271.741,151.135 268.296,150.948 267.808 C 150.835 267.513,150.311 267.164,149.784 267.032 C 149.257 266.899,147.637 265.938,146.184 264.896 C 144.731 263.853,143.193 262.822,142.767 262.604 C 142.341 262.386,141.897 261.906,141.780 261.537 C 141.663 261.168,141.050 260.687,140.418 260.466 C 139.787 260.246,138.304 259.286,137.123 258.333 C 135.943 257.380,134.381 256.150,133.653 255.600 C 132.924 255.050,131.633 254.060,130.782 253.400 C 128.606 251.712,126.006 249.870,125.145 249.408 C 124.169 248.885,123.915 248.107,124.414 247.174 C 124.812 246.429,125.663 246.402,151.869 246.303 C 175.423 246.213,178.955 246.123,179.243 245.600 C 180.284 243.706,181.200 241.080,181.200 239.989 C 181.200 239.298,181.740 237.385,182.400 235.736 C 183.060 234.088,183.600 232.270,183.600 231.696 C 183.600 231.122,183.941 229.921,184.358 229.026 C 184.774 228.132,185.428 226.367,185.811 225.105 C 186.193 223.842,186.753 222.605,187.053 222.356 C 187.354 222.106,187.600 221.587,187.600 221.202 C 187.600 220.817,188.041 219.152,188.580 217.501 C 189.119 215.850,189.837 213.303,190.176 211.841 C 190.515 210.379,191.181 208.422,191.656 207.491 C 192.132 206.561,192.498 205.188,192.470 204.440 C 192.410 202.803,193.421 200.524,194.452 199.972 C 195.607 199.354,195.532 196.000,194.364 196.000 C 193.904 196.000,192.515 195.145,191.277 194.100 C 190.040 193.055,188.661 191.900,188.214 191.533 C 184.653 188.616,182.896 187.250,181.504 186.316 C 180.615 185.719,179.179 184.594,178.312 183.816 C 177.444 183.037,176.631 182.400,176.505 182.400 C 176.379 182.400,175.629 181.905,174.838 181.300 C 173.483 180.264,173.157 180.199,169.200 180.187 C 162.597 180.167,161.708 179.308,160.959 172.215 C 160.842 171.107,160.489 169.064,160.173 167.675 C 159.858 166.287,159.600 164.662,159.600 164.066 C 159.600 163.470,159.085 161.636,158.456 159.991 C 157.827 158.346,157.096 155.740,156.831 154.200 C 156.566 152.660,156.159 150.860,155.925 150.200 C 155.691 149.540,155.411 148.370,155.302 147.600 C 155.194 146.830,154.938 145.992,154.734 145.737 C 154.530 145.482,154.202 144.402,154.005 143.337 C 153.808 142.272,153.355 140.140,152.999 138.600 C 152.644 137.060,152.214 134.900,152.045 133.800 C 151.876 132.700,151.513 130.990,151.239 130.000 C 150.964 129.010,150.494 127.210,150.194 126.000 C 149.894 124.790,149.187 122.048,148.624 119.906 C 148.061 117.764,147.600 115.745,147.600 115.420 C 147.600 115.094,147.355 114.057,147.056 113.114 C 146.757 112.171,146.182 109.960,145.778 108.200 C 145.375 106.440,144.908 104.811,144.741 104.581 C 144.573 104.351,144.255 103.181,144.033 101.981 C 143.812 100.781,143.336 98.630,142.978 97.200 C 142.619 95.770,142.137 93.385,141.906 91.900 C 141.676 90.415,141.333 89.200,141.144 89.200 C 140.955 89.200,140.800 88.901,140.800 88.535 C 140.800 88.169,140.538 86.954,140.218 85.835 C 139.898 84.716,139.281 82.090,138.847 80.000 C 138.414 77.910,137.767 75.030,137.409 73.600 C 137.051 72.170,136.601 70.280,136.408 69.400 C 136.216 68.520,135.866 67.293,135.630 66.674 C 135.393 66.055,135.200 65.047,135.200 64.435 C 135.200 63.173,134.133 60.800,133.566 60.800 C 133.359 60.800,132.711 59.765,132.127 58.500 C 131.543 57.235,130.843 55.930,130.571 55.600 C 128.551 53.143,128.768 49.697,131.000 48.775 C 132.617 48.107,265.982 48.526,266.408 49.200 M195.167 61.766 C 195.075 61.858,192.210 61.984,188.800 62.046 C 185.390 62.108,182.375 62.232,182.100 62.322 C 181.423 62.544,181.459 65.658,182.220 72.800 C 182.560 75.990,182.733 79.174,182.605 79.876 C 182.477 80.577,182.636 84.627,182.958 88.876 C 183.280 93.124,183.656 98.760,183.793 101.400 C 183.931 104.040,184.213 106.371,184.422 106.580 C 184.630 106.789,184.804 109.579,184.810 112.780 C 184.815 115.981,185.004 119.320,185.230 120.200 C 185.457 121.080,185.737 125.220,185.853 129.400 C 185.969 133.580,186.240 137.574,186.455 138.277 C 186.845 139.547,187.308 146.699,187.967 161.646 C 188.433 172.191,187.423 171.201,197.714 171.194 C 208.283 171.186,207.300 171.924,207.659 163.725 C 208.339 148.192,208.777 140.360,208.987 140.022 C 209.316 139.488,210.401 126.826,210.804 118.800 C 211.497 105.012,211.991 97.352,212.377 94.400 C 212.731 91.693,213.147 85.046,213.994 68.600 C 214.383 61.053,215.161 61.600,204.022 61.600 C 199.243 61.600,195.258 61.675,195.167 61.766 M183.468 180.266 C 183.348 180.385,184.364 181.348,185.725 182.405 C 187.086 183.462,188.650 184.775,189.200 185.323 C 189.750 185.871,190.858 186.759,191.662 187.296 C 192.467 187.834,193.843 188.842,194.720 189.537 C 196.796 191.181,197.631 191.130,199.557 189.242 C 200.431 188.386,201.334 187.621,201.565 187.542 C 202.516 187.219,209.971 180.677,209.766 180.346 C 209.532 179.966,183.845 179.888,183.468 180.266 " stroke="none" fill="#f3f3f3" fill-rule="evenodd"></path><path id="path1" d="M132.100 50.088 C 130.956 50.640,130.961 50.705,132.422 54.133 C 134.041 57.929,135.186 60.101,135.855 60.645 C 136.461 61.137,259.166 61.315,259.959 60.825 C 261.833 59.667,265.263 50.928,264.160 50.121 C 263.213 49.429,133.535 49.396,132.100 50.088 M163.189 172.407 C 162.860 172.610,162.837 172.925,163.112 173.449 C 163.329 173.862,163.632 174.955,163.785 175.877 C 164.192 178.337,164.691 178.573,169.964 178.800 L 174.610 179.000 176.891 180.800 C 178.146 181.790,180.304 183.469,181.686 184.530 C 183.069 185.592,185.755 187.662,187.656 189.130 C 189.557 190.599,192.134 192.585,193.383 193.544 C 194.632 194.504,195.810 195.701,196.001 196.204 C 196.411 197.282,195.530 202.870,194.673 204.631 C 194.126 205.755,193.206 208.535,190.384 217.600 C 189.665 219.910,188.845 222.346,188.561 223.012 C 188.278 223.679,187.655 225.659,187.178 227.412 C 186.701 229.166,186.171 230.780,186.001 231.000 C 185.831 231.220,185.560 232.017,185.399 232.771 C 184.796 235.588,181.111 246.226,180.506 246.900 C 179.919 247.552,178.109 247.602,153.838 247.628 C 139.517 247.644,127.453 247.792,127.028 247.959 C 126.233 248.270,128.184 249.925,135.017 254.735 C 136.328 255.658,138.480 257.224,139.800 258.217 C 141.120 259.209,142.740 260.370,143.400 260.796 C 145.421 262.100,158.883 271.913,159.985 272.884 C 160.556 273.388,162.881 274.993,167.089 277.789 C 170.076 279.772,170.129 280.452,167.827 287.172 C 167.267 288.806,166.698 290.735,166.563 291.457 C 166.427 292.180,166.065 292.980,165.758 293.235 C 165.451 293.490,165.200 294.043,165.200 294.465 C 165.200 294.887,164.570 297.095,163.800 299.373 C 163.030 301.650,162.400 303.868,162.400 304.301 C 162.400 304.734,161.979 305.708,161.465 306.466 C 160.951 307.224,160.414 308.692,160.272 309.729 C 160.130 310.766,159.671 312.376,159.252 313.307 C 158.834 314.238,158.286 315.978,158.034 317.173 C 157.783 318.368,157.386 319.576,157.153 319.857 C 156.919 320.138,156.393 321.590,155.984 323.084 C 155.574 324.578,154.865 326.844,154.408 328.120 C 153.163 331.596,153.971 332.163,156.800 329.800 C 157.722 329.030,158.729 328.400,159.038 328.400 C 159.347 328.400,159.600 328.222,159.600 328.005 C 159.600 327.788,160.275 327.161,161.100 326.613 C 161.925 326.064,163.721 324.757,165.092 323.708 C 166.462 322.659,169.560 320.360,171.976 318.600 C 177.176 314.812,182.054 311.236,184.000 309.786 C 189.479 305.702,194.250 302.400,194.672 302.400 C 194.947 302.400,195.365 302.040,195.600 301.600 C 196.417 300.073,198.942 300.825,202.675 303.707 C 203.596 304.418,205.846 306.063,207.675 307.362 C 209.504 308.661,211.180 309.932,211.400 310.187 C 211.620 310.441,212.070 310.777,212.400 310.932 C 212.730 311.087,213.720 311.755,214.600 312.417 C 215.480 313.079,217.258 314.381,218.551 315.310 C 219.845 316.240,221.391 317.360,221.987 317.800 C 222.583 318.240,224.585 319.710,226.436 321.067 C 228.286 322.423,230.340 323.972,231.000 324.507 C 231.660 325.043,232.650 325.710,233.200 325.989 C 233.750 326.268,234.740 326.983,235.400 327.579 C 237.099 329.111,240.718 331.600,241.248 331.600 C 241.789 331.600,241.563 330.485,240.480 327.800 C 240.036 326.700,239.376 324.720,239.015 323.400 C 238.653 322.080,238.200 320.640,238.009 320.200 C 237.378 318.751,235.283 312.228,234.990 310.800 C 234.832 310.030,234.379 308.762,233.985 307.981 C 233.590 307.201,233.139 305.851,232.983 304.981 C 232.827 304.112,232.359 302.638,231.943 301.707 C 231.527 300.776,231.075 299.156,230.939 298.107 C 230.804 297.058,230.439 295.908,230.130 295.551 C 229.821 295.194,229.143 293.394,228.623 291.551 C 228.104 289.708,227.395 287.390,227.050 286.400 C 226.704 285.410,226.155 283.700,225.829 282.600 L 225.238 280.600 227.104 278.700 C 228.130 277.655,229.203 276.800,229.489 276.800 C 229.774 276.800,230.316 276.440,230.693 276.000 C 231.070 275.560,231.553 275.200,231.767 275.200 C 231.981 275.200,232.616 274.764,233.178 274.231 C 234.064 273.391,235.740 272.163,242.324 267.531 C 243.052 267.019,244.374 266.015,245.262 265.300 C 246.149 264.585,247.032 264.000,247.224 264.000 C 247.416 264.000,248.105 263.505,248.757 262.900 C 249.408 262.295,251.396 260.810,253.175 259.600 C 254.954 258.390,258.403 255.915,260.839 254.100 C 263.276 252.285,265.409 250.800,265.579 250.800 C 266.118 250.800,268.771 248.104,268.499 247.832 C 268.356 247.689,256.440 247.592,242.020 247.616 C 210.921 247.667,213.603 248.110,213.001 242.827 C 212.863 241.622,212.489 240.461,212.161 240.221 C 211.835 239.983,211.236 238.531,210.829 236.994 C 210.132 234.362,209.580 232.658,207.396 226.400 C 205.296 220.380,204.328 217.302,204.040 215.721 C 203.871 214.798,203.549 213.808,203.324 213.521 C 203.099 213.235,202.416 211.200,201.806 209.000 C 201.196 206.800,200.566 204.820,200.406 204.600 C 200.245 204.380,199.732 202.722,199.264 200.917 C 197.910 195.685,198.243 195.201,209.200 186.444 C 210.850 185.126,212.657 183.586,213.215 183.023 C 213.773 182.461,214.435 182.000,214.686 182.000 C 214.937 182.000,215.497 181.549,215.931 180.997 C 217.443 179.074,218.543 178.805,224.890 178.802 L 230.779 178.800 231.379 177.641 C 232.325 175.810,232.918 172.720,232.386 172.391 C 231.785 172.020,163.790 172.035,163.189 172.407 M212.978 179.164 C 213.394 179.837,212.788 180.590,210.288 182.508 C 204.744 186.760,202.141 188.852,201.000 189.974 C 200.340 190.622,198.999 191.511,198.020 191.948 L 196.240 192.744 195.372 191.872 C 194.895 191.392,193.113 190.010,191.412 188.800 C 189.710 187.590,187.121 185.603,185.659 184.384 C 184.197 183.165,182.415 181.758,181.700 181.257 C 180.357 180.315,180.029 179.417,180.900 179.065 C 181.819 178.694,212.746 178.790,212.978 179.164 " stroke="none" fill="#f9e50a" fill-rule="evenodd"></path><path id="path2" d="M136.145 61.900 C 136.254 62.285,136.724 64.220,137.188 66.200 C 137.653 68.180,138.557 71.960,139.198 74.600 C 139.839 77.240,140.757 81.020,141.237 83.000 C 141.718 84.980,142.247 87.320,142.414 88.200 C 142.581 89.080,144.004 94.840,145.576 101.000 C 147.149 107.160,148.681 113.370,148.982 114.800 C 149.282 116.230,149.916 118.930,150.391 120.800 C 151.532 125.296,153.293 132.584,154.787 139.000 C 155.453 141.860,156.160 144.740,156.357 145.400 C 156.555 146.060,157.560 150.200,158.591 154.600 C 159.622 159.000,160.729 163.590,161.052 164.800 C 161.374 166.010,161.828 167.720,162.061 168.600 C 162.293 169.480,162.641 170.605,162.833 171.100 L 163.183 172.000 174.742 172.000 C 183.730 172.000,186.398 171.884,186.733 171.481 C 187.165 170.960,186.937 165.557,185.978 153.600 C 185.758 150.850,185.409 145.720,185.203 142.200 C 184.677 133.224,183.951 122.659,182.618 104.600 C 181.705 92.233,181.159 84.349,180.761 77.800 C 179.924 64.011,179.780 62.499,179.244 61.854 C 178.378 60.810,135.848 60.856,136.145 61.900 M216.492 61.700 C 216.104 62.178,215.624 67.648,214.780 81.200 C 214.568 84.610,214.215 88.718,213.997 90.329 C 213.779 91.940,213.598 94.820,213.597 96.729 C 213.595 98.638,213.410 102.270,213.185 104.800 C 212.961 107.330,212.606 112.190,212.396 115.600 C 211.812 125.092,210.871 138.554,210.188 147.200 C 209.365 157.616,208.749 170.411,209.029 171.290 C 209.238 171.949,210.105 172.000,221.019 172.000 L 232.785 172.000 233.023 170.900 C 233.155 170.295,233.414 169.440,233.599 169.000 C 233.784 168.560,234.314 166.580,234.777 164.600 C 235.240 162.620,235.788 160.370,235.995 159.600 C 236.202 158.830,236.669 156.760,237.034 155.000 C 237.398 153.240,237.796 151.530,237.917 151.200 C 238.162 150.534,239.006 147.159,239.612 144.421 C 239.828 143.443,240.176 142.093,240.384 141.421 C 240.592 140.749,241.334 137.680,242.033 134.600 C 242.731 131.520,243.651 127.740,244.078 126.200 C 244.504 124.660,245.011 122.541,245.204 121.491 C 245.397 120.441,245.737 119.001,245.960 118.291 C 246.183 117.581,246.741 115.470,247.200 113.600 C 248.836 106.936,250.451 100.173,250.824 98.429 C 251.032 97.454,251.641 94.934,252.177 92.829 C 252.713 90.723,253.707 86.660,254.384 83.800 C 255.062 80.940,255.784 77.970,255.987 77.200 C 256.191 76.430,256.650 74.540,257.006 73.000 C 257.905 69.119,258.783 65.627,259.226 64.172 C 259.432 63.496,259.600 62.551,259.600 62.072 L 259.600 61.200 238.249 61.200 C 221.651 61.200,216.808 61.311,216.492 61.700 " stroke="none" fill="#db0916" fill-rule="evenodd"></path><path id="path3" d="M131.300 49.396 C 129.318 50.258,130.576 55.191,134.007 60.010 C 135.304 61.831,135.758 61.007,134.635 58.871 C 131.431 52.774,130.858 50.684,132.219 50.064 C 133.797 49.345,263.175 49.401,264.160 50.121 C 265.126 50.828,264.593 52.761,262.215 57.171 C 261.227 59.005,260.518 60.668,260.641 60.866 C 260.972 61.402,262.221 59.640,263.709 56.533 C 264.435 55.019,265.337 53.339,265.715 52.801 C 266.839 51.195,266.603 50.044,265.013 49.380 C 262.955 48.520,133.279 48.536,131.300 49.396 M181.039 61.137 C 180.924 61.323,188.546 61.458,197.976 61.437 C 207.406 61.417,215.039 61.265,214.937 61.100 C 214.681 60.684,181.296 60.721,181.039 61.137 M197.700 171.500 C 191.695 171.571,188.000 171.764,188.000 172.007 C 188.000 172.254,191.652 172.400,197.800 172.400 C 206.244 172.400,207.600 172.317,207.600 171.800 C 207.600 171.470,207.555 171.242,207.500 171.293 C 207.445 171.343,203.035 171.437,197.700 171.500 M161.758 173.035 C 161.892 173.384,162.116 174.419,162.256 175.335 C 162.790 178.837,163.999 179.542,169.446 179.524 C 173.043 179.513,173.449 179.623,176.360 181.400 C 176.720 181.620,177.391 182.160,177.850 182.600 C 178.814 183.524,180.158 184.577,183.073 186.694 C 184.214 187.522,187.158 189.820,189.616 191.800 C 192.075 193.780,194.450 195.538,194.894 195.706 C 195.977 196.116,195.590 200.521,194.355 201.843 C 193.923 202.306,193.473 203.386,193.356 204.243 C 193.239 205.099,192.713 206.880,192.187 208.200 C 191.661 209.520,190.955 211.822,190.618 213.316 C 190.280 214.810,189.738 216.546,189.414 217.174 C 189.089 217.802,188.700 219.100,188.549 220.058 C 188.398 221.016,188.042 222.160,187.758 222.600 C 187.295 223.318,186.434 225.883,183.396 235.600 C 182.881 237.250,181.954 240.203,181.338 242.163 C 180.721 244.123,179.975 245.968,179.680 246.263 C 179.241 246.702,174.242 246.800,152.400 246.800 C 127.697 246.800,125.605 246.852,124.973 247.484 C 124.327 248.130,124.328 248.192,124.998 248.584 C 125.388 248.813,126.178 249.369,126.754 249.819 C 127.329 250.270,129.659 251.980,131.932 253.619 C 134.205 255.259,136.815 257.188,137.732 257.906 C 138.649 258.624,139.985 259.481,140.700 259.811 C 141.415 260.141,142.000 260.586,142.000 260.800 C 142.000 261.015,142.675 261.645,143.500 262.202 C 148.785 265.768,155.744 270.653,159.000 273.082 C 159.660 273.574,160.920 274.476,161.800 275.085 C 162.680 275.694,163.534 276.401,163.698 276.657 C 163.862 276.912,164.852 277.619,165.898 278.226 C 168.743 279.879,168.972 280.622,167.650 283.926 C 167.237 284.957,166.495 287.240,166.001 289.000 C 165.507 290.760,164.975 292.560,164.818 293.000 C 163.410 296.953,162.619 299.391,162.026 301.600 C 161.642 303.030,161.053 304.740,160.716 305.400 C 160.379 306.060,159.975 307.500,159.818 308.600 C 159.660 309.700,159.200 310.960,158.795 311.400 C 158.389 311.840,157.796 313.280,157.477 314.600 C 157.158 315.920,156.616 317.810,156.272 318.800 C 154.364 324.302,153.082 328.573,152.538 331.243 C 152.113 333.329,156.010 332.427,157.682 330.051 C 157.967 329.646,158.605 329.187,159.100 329.030 C 159.595 328.874,160.000 328.574,160.000 328.363 C 160.000 328.153,160.460 327.805,161.021 327.592 C 161.583 327.378,162.708 326.694,163.521 326.071 C 165.909 324.243,171.593 319.988,174.400 317.928 C 175.830 316.879,177.366 315.656,177.814 315.210 C 178.262 314.765,178.754 314.400,178.908 314.400 C 179.061 314.400,181.935 312.429,185.294 310.019 C 188.652 307.610,192.013 305.225,192.762 304.719 C 193.511 304.214,194.619 303.305,195.223 302.700 C 197.134 300.786,196.426 300.443,208.197 308.988 C 210.176 310.425,212.021 311.600,212.297 311.600 C 212.574 311.600,212.800 311.778,212.800 311.995 C 212.800 312.212,213.475 312.839,214.300 313.389 C 215.125 313.938,216.790 315.113,218.000 316.000 C 219.210 316.887,220.830 318.052,221.600 318.589 C 222.370 319.126,224.519 320.743,226.376 322.183 C 228.232 323.622,229.883 324.800,230.045 324.800 C 230.206 324.800,230.862 325.295,231.501 325.900 C 232.141 326.505,233.988 327.900,235.605 329.000 C 237.223 330.100,238.999 331.413,239.551 331.918 C 242.139 334.283,243.278 332.300,241.705 328.168 C 241.041 326.425,240.274 324.010,239.998 322.800 C 239.723 321.590,239.271 320.330,238.994 320.000 C 238.716 319.670,238.364 318.770,238.210 318.000 C 237.891 316.393,235.902 310.132,234.590 306.600 C 234.100 305.280,233.486 303.302,233.225 302.205 C 232.965 301.108,232.508 299.938,232.210 299.605 C 231.912 299.272,231.551 298.280,231.408 297.400 C 231.101 295.507,229.490 290.054,228.158 286.400 C 227.637 284.970,227.096 282.967,226.957 281.949 L 226.705 280.098 228.918 278.427 C 230.135 277.508,231.231 276.496,231.353 276.178 C 231.475 275.860,231.871 275.600,232.233 275.600 C 232.594 275.600,233.455 275.141,234.145 274.581 C 234.835 274.021,236.750 272.591,238.400 271.404 C 240.050 270.217,242.030 268.774,242.800 268.197 C 243.570 267.621,245.325 266.435,246.700 265.563 C 248.075 264.691,249.200 263.832,249.200 263.653 C 249.200 263.474,249.605 263.123,250.100 262.871 C 250.595 262.620,252.080 261.606,253.400 260.617 C 254.720 259.629,256.701 258.197,257.803 257.436 C 259.785 256.066,263.650 253.249,268.100 249.933 C 272.473 246.674,273.240 246.770,243.140 246.814 C 212.840 246.859,213.615 246.969,213.591 242.611 C 213.586 241.725,213.214 240.190,212.764 239.200 C 212.314 238.210,211.675 236.236,211.344 234.813 C 211.013 233.390,210.501 231.770,210.207 231.213 C 209.559 229.983,208.310 226.221,206.970 221.453 C 206.421 219.503,205.709 217.397,205.386 216.773 C 205.064 216.150,204.800 215.293,204.800 214.869 C 204.800 214.445,204.533 213.459,204.207 212.678 C 203.880 211.897,203.237 209.850,202.778 208.129 C 202.318 206.408,201.598 204.242,201.176 203.316 C 198.402 197.213,199.288 195.520,209.600 187.231 C 211.250 185.905,213.050 184.446,213.600 183.990 C 214.964 182.858,217.930 180.708,218.957 180.106 C 219.511 179.781,221.649 179.609,225.200 179.604 L 230.600 179.596 231.860 178.415 C 233.093 177.260,234.127 173.593,233.419 172.886 C 233.063 172.529,232.416 173.614,232.397 174.600 C 232.389 175.040,232.035 176.165,231.611 177.100 L 230.839 178.800 224.920 178.802 C 218.540 178.805,217.445 179.073,215.931 180.997 C 215.497 181.549,214.937 182.000,214.686 182.000 C 214.435 182.000,213.773 182.461,213.215 183.023 C 212.657 183.586,210.850 185.126,209.200 186.444 C 198.243 195.201,197.910 195.685,199.264 200.917 C 199.732 202.722,200.245 204.380,200.406 204.600 C 200.566 204.820,201.196 206.800,201.806 209.000 C 202.416 211.200,203.099 213.235,203.324 213.521 C 203.549 213.808,203.871 214.798,204.040 215.721 C 204.328 217.302,205.296 220.380,207.396 226.400 C 209.580 232.658,210.132 234.362,210.829 236.994 C 211.236 238.531,211.835 239.983,212.161 240.221 C 212.489 240.461,212.863 241.622,213.001 242.827 C 213.603 248.110,210.921 247.667,242.020 247.616 C 256.440 247.592,268.356 247.689,268.499 247.832 C 268.771 248.104,266.118 250.800,265.579 250.800 C 265.409 250.800,263.276 252.285,260.839 254.100 C 258.403 255.915,254.954 258.390,253.175 259.600 C 251.396 260.810,249.408 262.295,248.757 262.900 C 248.105 263.505,247.416 264.000,247.224 264.000 C 247.032 264.000,246.149 264.585,245.262 265.300 C 244.374 266.015,243.052 267.019,242.324 267.531 C 235.740 272.163,234.064 273.391,233.178 274.231 C 232.616 274.764,231.981 275.200,231.767 275.200 C 231.553 275.200,231.070 275.560,230.693 276.000 C 230.316 276.440,229.774 276.800,229.489 276.800 C 229.203 276.800,228.130 277.655,227.104 278.700 L 225.238 280.600 225.829 282.600 C 226.155 283.700,226.704 285.410,227.050 286.400 C 227.395 287.390,228.104 289.708,228.623 291.551 C 229.143 293.394,229.821 295.194,230.130 295.551 C 230.439 295.908,230.804 297.058,230.939 298.107 C 231.075 299.156,231.527 300.776,231.943 301.707 C 232.359 302.638,232.827 304.112,232.983 304.981 C 233.139 305.851,233.590 307.201,233.985 307.981 C 234.379 308.762,234.832 310.030,234.990 310.800 C 235.283 312.228,237.378 318.751,238.009 320.200 C 238.200 320.640,238.653 322.080,239.015 323.400 C 239.376 324.720,240.036 326.700,240.480 327.800 C 241.563 330.485,241.789 331.600,241.248 331.600 C 240.718 331.600,237.099 329.111,235.400 327.579 C 234.740 326.983,233.750 326.268,233.200 325.989 C 232.650 325.710,231.660 325.043,231.000 324.507 C 230.340 323.972,228.286 322.423,226.436 321.067 C 224.585 319.710,222.583 318.240,221.987 317.800 C 221.391 317.360,219.845 316.240,218.551 315.310 C 217.258 314.381,215.480 313.079,214.600 312.417 C 213.720 311.755,212.730 311.087,212.400 310.932 C 212.070 310.777,211.620 310.441,211.400 310.187 C 211.180 309.932,209.504 308.661,207.675 307.362 C 205.846 306.063,203.596 304.418,202.675 303.707 C 198.942 300.825,196.417 300.073,195.600 301.600 C 195.365 302.040,194.947 302.400,194.672 302.400 C 194.250 302.400,189.479 305.702,184.000 309.786 C 182.054 311.236,177.176 314.812,171.976 318.600 C 169.560 320.360,166.462 322.659,165.092 323.708 C 163.721 324.757,161.925 326.064,161.100 326.613 C 160.275 327.161,159.600 327.788,159.600 328.005 C 159.600 328.222,159.347 328.400,159.038 328.400 C 158.729 328.400,157.722 329.030,156.800 329.800 C 153.971 332.163,153.163 331.596,154.408 328.120 C 154.865 326.844,155.574 324.578,155.984 323.084 C 156.393 321.590,156.919 320.138,157.153 319.857 C 157.386 319.576,157.783 318.368,158.034 317.173 C 158.286 315.978,158.834 314.238,159.252 313.307 C 159.671 312.376,160.130 310.766,160.272 309.729 C 160.414 308.692,160.951 307.224,161.465 306.466 C 161.979 305.708,162.400 304.734,162.400 304.301 C 162.400 303.868,163.030 301.650,163.800 299.373 C 164.570 297.095,165.200 294.887,165.200 294.465 C 165.200 294.043,165.451 293.490,165.758 293.235 C 166.065 292.980,166.427 292.180,166.563 291.457 C 166.698 290.735,167.267 288.806,167.827 287.172 C 170.129 280.452,170.076 279.772,167.089 277.789 C 162.881 274.993,160.556 273.388,159.985 272.884 C 158.883 271.913,145.421 262.100,143.400 260.796 C 142.740 260.370,141.120 259.209,139.800 258.217 C 138.480 257.224,136.328 255.658,135.017 254.735 C 128.184 249.925,126.233 248.270,127.028 247.959 C 127.453 247.792,139.517 247.644,153.838 247.628 C 178.109 247.602,179.919 247.552,180.506 246.900 C 181.111 246.226,184.796 235.588,185.399 232.771 C 185.560 232.017,185.831 231.220,186.001 231.000 C 186.171 230.780,186.701 229.166,187.178 227.412 C 187.655 225.659,188.278 223.679,188.561 223.012 C 188.845 222.346,189.665 219.910,190.384 217.600 C 193.206 208.535,194.126 205.755,194.673 204.631 C 195.530 202.870,196.411 197.282,196.001 196.204 C 195.810 195.701,194.632 194.504,193.383 193.544 C 192.134 192.585,189.557 190.599,187.656 189.130 C 185.755 187.662,183.069 185.592,181.686 184.530 C 180.304 183.469,178.146 181.790,176.891 180.800 L 174.610 179.000 169.964 178.800 C 164.689 178.573,164.188 178.336,163.793 175.877 C 163.497 174.039,162.628 172.400,161.948 172.400 C 161.710 172.400,161.624 172.686,161.758 173.035 M180.900 179.065 C 180.029 179.417,180.357 180.315,181.700 181.257 C 182.415 181.758,184.197 183.165,185.659 184.384 C 187.121 185.603,189.710 187.590,191.412 188.800 C 193.113 190.010,194.895 191.392,195.372 191.872 L 196.240 192.744 198.020 191.948 C 198.999 191.511,200.340 190.622,201.000 189.974 C 202.141 188.852,204.744 186.760,210.288 182.508 C 212.788 180.590,213.394 179.837,212.978 179.164 C 212.746 178.790,181.819 178.694,180.900 179.065 M210.813 180.009 C 211.074 180.423,210.978 180.753,210.493 181.112 C 209.760 181.653,203.656 186.663,200.314 189.466 C 197.409 191.903,196.797 191.947,194.189 189.910 C 186.711 184.070,182.584 180.637,182.473 180.167 C 182.236 179.156,210.177 179.000,210.813 180.009 " stroke="none" fill="#f6ee8d" fill-rule="evenodd"></path><path id="path4" d="M135.246 61.372 C 135.185 62.386,137.226 70.907,137.471 70.662 C 137.575 70.558,137.207 68.611,136.652 66.336 C 136.098 64.061,135.565 61.840,135.468 61.400 C 135.302 60.642,135.290 60.641,135.246 61.372 M260.136 62.301 C 260.082 63.580,260.120 63.653,260.396 62.800 C 260.829 61.464,260.864 60.800,260.500 60.801 C 260.335 60.801,260.171 61.476,260.136 62.301 M180.459 63.900 C 180.624 65.385,180.789 67.590,180.826 68.800 C 180.863 70.010,180.981 70.653,181.089 70.229 C 181.361 69.164,180.789 61.200,180.441 61.200 C 180.285 61.200,180.294 62.415,180.459 63.900 M214.978 61.635 C 214.831 61.874,214.910 62.270,215.155 62.515 C 215.482 62.842,215.600 62.726,215.600 62.080 C 215.600 61.114,215.392 60.965,214.978 61.635 M259.400 65.200 C 259.248 65.891,259.214 66.547,259.324 66.657 C 259.434 66.767,259.648 66.291,259.800 65.600 C 259.952 64.909,259.986 64.253,259.876 64.143 C 259.766 64.033,259.552 64.509,259.400 65.200 M214.597 68.105 C 214.442 70.172,214.391 72.209,214.483 72.632 C 214.576 73.054,214.793 71.453,214.966 69.074 C 215.139 66.694,215.190 64.657,215.080 64.546 C 214.969 64.436,214.752 66.037,214.597 68.105 M258.505 69.228 C 258.284 70.343,258.242 71.108,258.411 70.928 C 258.759 70.556,259.368 67.200,259.088 67.200 C 258.988 67.200,258.726 68.113,258.505 69.228 M137.658 72.000 C 137.662 73.104,138.702 76.561,138.740 75.600 C 138.754 75.270,138.515 74.100,138.209 73.000 C 137.888 71.844,137.656 71.422,137.658 72.000 M181.243 75.233 C 181.267 77.305,181.427 80.080,181.599 81.400 C 181.791 82.873,181.831 81.483,181.703 77.800 C 181.469 71.080,181.177 69.446,181.243 75.233 M257.509 73.000 C 256.797 76.276,256.780 76.624,257.409 75.000 C 257.750 74.120,257.970 73.040,257.899 72.600 C 257.802 71.997,257.706 72.095,257.509 73.000 M213.900 79.300 C 213.246 88.676,213.199 92.669,213.823 85.800 C 214.143 82.280,214.359 78.410,214.303 77.200 C 214.228 75.600,214.118 76.173,213.900 79.300 M139.069 77.800 C 139.457 80.227,140.034 81.772,139.741 79.600 C 139.607 78.610,139.344 77.440,139.155 77.000 C 138.935 76.484,138.904 76.769,139.069 77.800 M256.091 78.977 C 255.821 79.986,255.612 81.124,255.626 81.506 C 255.641 81.888,255.915 81.223,256.236 80.030 C 256.557 78.836,256.766 77.698,256.700 77.501 C 256.635 77.304,256.360 77.969,256.091 78.977 M140.056 82.200 C 140.056 82.640,140.211 83.360,140.400 83.800 L 140.744 84.600 140.744 83.800 C 140.744 83.360,140.589 82.640,140.400 82.200 L 140.056 81.400 140.056 82.200 M254.470 86.070 C 253.981 88.074,253.653 89.786,253.741 89.875 C 253.830 89.963,254.306 88.399,254.800 86.400 C 255.294 84.401,255.622 82.688,255.528 82.595 C 255.435 82.502,254.958 84.065,254.470 86.070 M182.134 86.800 C 182.134 88.450,182.205 89.125,182.291 88.300 C 182.378 87.475,182.378 86.125,182.291 85.300 C 182.205 84.475,182.134 85.150,182.134 86.800 M142.058 90.400 C 142.062 91.504,143.102 94.961,143.140 94.000 C 143.154 93.670,142.915 92.500,142.609 91.400 C 142.288 90.244,142.056 89.822,142.058 90.400 M252.694 93.277 C 251.739 97.235,251.852 98.130,252.843 94.443 C 253.279 92.816,253.583 91.231,253.518 90.920 C 253.453 90.609,253.082 91.670,252.694 93.277 M182.443 94.233 C 182.467 95.535,182.630 97.680,182.805 99.000 C 183.024 100.655,183.057 99.972,182.911 96.800 C 182.689 91.955,182.369 90.201,182.443 94.233 M212.914 96.200 C 212.917 97.300,212.995 97.703,213.087 97.095 C 213.179 96.486,213.177 95.586,213.082 95.095 C 212.987 94.603,212.911 95.100,212.914 96.200 M143.244 95.200 C 143.239 95.530,143.485 96.700,143.791 97.800 C 144.096 98.900,144.355 99.440,144.367 99.000 C 144.378 98.560,144.133 97.390,143.821 96.400 C 143.509 95.410,143.249 94.870,143.244 95.200 M251.378 98.653 C 251.234 99.284,250.865 100.816,250.558 102.058 C 249.938 104.567,249.858 106.075,250.444 104.200 C 251.035 102.312,251.958 97.825,251.791 97.657 C 251.707 97.574,251.521 98.022,251.378 98.653 M212.509 100.800 C 212.509 101.790,212.587 102.195,212.682 101.700 C 212.778 101.205,212.778 100.395,212.682 99.900 C 212.587 99.405,212.509 99.810,212.509 100.800 M144.457 100.400 C 144.442 101.212,145.788 106.321,146.099 106.633 C 146.236 106.769,146.094 105.828,145.784 104.541 C 145.030 101.409,144.471 99.666,144.457 100.400 M183.328 104.400 C 183.328 105.830,183.401 106.415,183.489 105.700 C 183.578 104.985,183.578 103.815,183.489 103.100 C 183.401 102.385,183.328 102.970,183.328 104.400 M212.142 107.000 C 212.141 108.980,212.208 109.840,212.292 108.912 C 212.376 107.984,212.377 106.364,212.295 105.312 C 212.212 104.260,212.143 105.020,212.142 107.000 M146.458 108.000 C 146.462 109.104,147.502 112.561,147.540 111.600 C 147.554 111.270,147.315 110.100,147.009 109.000 C 146.688 107.844,146.456 107.422,146.458 108.000 M183.704 109.600 C 183.695 111.030,183.821 113.280,183.985 114.600 L 184.282 117.000 184.294 114.600 C 184.301 113.280,184.175 111.030,184.014 109.600 L 183.722 107.000 183.704 109.600 M248.250 111.250 C 247.917 112.917,248.240 113.240,248.600 111.600 C 248.752 110.909,248.793 110.259,248.691 110.158 C 248.589 110.056,248.391 110.547,248.250 111.250 M211.397 116.105 C 211.242 118.172,211.193 120.209,211.288 120.632 C 211.383 121.054,211.604 119.457,211.779 117.082 C 211.955 114.708,212.004 112.670,211.888 112.555 C 211.773 112.440,211.552 114.037,211.397 116.105 M247.463 114.300 C 247.079 116.196,246.777 118.263,246.952 117.800 C 247.591 116.106,248.066 114.000,247.912 113.546 C 247.810 113.246,247.608 113.585,247.463 114.300 M148.068 114.800 C 148.088 115.839,148.718 117.546,148.732 116.600 C 148.738 116.160,148.589 115.440,148.400 115.000 C 148.189 114.510,148.061 114.432,148.068 114.800 M148.850 117.800 C 148.831 118.020,149.066 119.100,149.372 120.200 C 149.678 121.300,149.931 121.840,149.933 121.400 C 149.939 120.548,148.908 117.123,148.850 117.800 M184.537 121.400 C 184.539 123.160,184.609 123.830,184.693 122.889 C 184.778 121.949,184.777 120.509,184.691 119.689 C 184.605 118.870,184.536 119.640,184.537 121.400 M246.031 120.431 C 245.747 121.540,245.590 122.523,245.683 122.617 C 245.776 122.710,246.085 121.878,246.369 120.769 C 246.653 119.660,246.810 118.677,246.717 118.583 C 246.624 118.490,246.315 119.322,246.031 120.431 M150.006 123.033 C 150.009 123.455,150.195 124.070,150.418 124.400 C 150.715 124.838,150.752 124.676,150.556 123.800 C 150.227 122.329,149.998 122.010,150.006 123.033 M210.937 125.800 C 210.939 127.560,211.009 128.230,211.093 127.289 C 211.178 126.349,211.177 124.909,211.091 124.089 C 211.005 123.270,210.936 124.040,210.937 125.800 M185.088 130.000 C 185.204 132.750,185.366 135.075,185.449 135.167 C 185.709 135.454,185.528 129.911,185.195 127.400 C 184.982 125.797,184.947 126.661,185.088 130.000 M243.431 131.300 C 242.824 133.995,242.074 137.088,241.764 138.173 C 241.454 139.258,241.211 140.518,241.225 140.973 C 241.238 141.428,241.668 140.180,242.181 138.200 C 243.700 132.331,244.911 126.778,244.716 126.583 C 244.616 126.483,244.038 128.605,243.431 131.300 M151.256 128.000 C 151.256 128.330,151.411 128.960,151.600 129.400 C 151.817 129.904,151.944 129.978,151.944 129.600 C 151.944 129.270,151.789 128.640,151.600 128.200 C 151.383 127.696,151.256 127.622,151.256 128.000 M210.193 133.738 C 210.038 135.387,209.992 136.975,210.090 137.268 C 210.188 137.561,210.394 136.291,210.548 134.447 C 210.702 132.603,210.748 131.015,210.651 130.917 C 210.553 130.820,210.347 132.089,210.193 133.738 M152.658 134.000 C 152.975 135.725,153.202 136.051,153.194 134.767 C 153.191 134.235,153.011 133.530,152.794 133.200 C 152.518 132.778,152.477 133.015,152.658 134.000 M153.257 136.600 C 153.262 137.594,154.303 140.826,154.352 140.000 C 154.372 139.670,154.133 138.590,153.821 137.600 C 153.509 136.610,153.255 136.160,153.257 136.600 M185.734 140.800 C 185.734 142.450,185.805 143.125,185.891 142.300 C 185.978 141.475,185.978 140.125,185.891 139.300 C 185.805 138.475,185.734 139.150,185.734 140.800 M209.491 143.000 C 209.335 145.420,209.091 149.200,208.949 151.400 C 208.808 153.600,208.787 155.310,208.904 155.200 C 209.200 154.922,210.131 140.828,209.935 139.600 C 209.847 139.050,209.647 140.580,209.491 143.000 M154.434 141.400 C 154.422 141.840,154.587 142.470,154.800 142.800 C 155.314 143.595,155.314 142.596,154.800 141.400 L 154.456 140.600 154.434 141.400 M240.464 143.544 C 240.209 144.396,240.012 145.432,240.026 145.846 C 240.041 146.261,240.314 145.628,240.633 144.440 C 241.301 141.958,241.161 141.218,240.464 143.544 M155.229 144.600 C 155.198 145.606,155.997 148.536,156.236 148.297 C 156.334 148.199,156.153 147.147,155.833 145.960 C 155.514 144.772,155.242 144.160,155.229 144.600 M186.293 148.400 C 186.410 150.930,186.573 153.075,186.653 153.167 C 186.924 153.474,186.733 147.821,186.405 145.800 C 186.191 144.486,186.152 145.377,186.293 148.400 M156.576 149.800 C 156.773 151.342,157.843 155.848,158.381 157.400 C 159.140 159.592,157.777 153.111,156.783 149.800 L 156.422 148.600 156.576 149.800 M238.200 152.400 C 238.048 153.091,238.007 153.741,238.109 153.842 C 238.211 153.944,238.409 153.453,238.550 152.750 C 238.883 151.083,238.560 150.760,238.200 152.400 M186.843 157.433 C 186.867 158.955,187.030 161.280,187.205 162.600 C 187.418 164.203,187.453 163.339,187.312 160.000 C 187.085 154.614,186.772 152.903,186.843 157.433 M237.000 157.600 C 236.848 158.291,236.807 158.941,236.909 159.042 C 237.011 159.144,237.209 158.653,237.350 157.950 C 237.683 156.283,237.360 155.960,237.000 157.600 M208.277 162.551 C 208.107 165.824,208.047 168.580,208.143 168.676 C 208.387 168.920,208.910 159.261,208.732 157.800 C 208.652 157.140,208.447 159.278,208.277 162.551 M235.219 165.318 C 234.477 168.443,233.624 171.405,233.325 171.900 C 232.996 172.445,232.946 172.800,233.199 172.800 C 233.863 172.800,237.264 160.331,236.743 159.809 C 236.647 159.714,235.962 162.193,235.219 165.318 M160.043 164.000 C 159.955 165.196,161.717 171.815,162.280 172.400 C 162.785 172.925,162.798 172.869,162.390 171.957 C 162.133 171.383,161.510 169.223,161.005 167.157 C 160.501 165.091,160.068 163.670,160.043 164.000 M187.737 169.000 C 187.739 170.760,187.809 171.430,187.893 170.489 C 187.978 169.549,187.977 168.109,187.891 167.289 C 187.805 166.470,187.736 167.240,187.737 169.000 M207.600 170.600 C 207.600 171.370,207.744 172.000,207.920 172.000 C 208.096 172.000,208.166 171.370,208.076 170.600 C 207.986 169.830,207.842 169.200,207.756 169.200 C 207.670 169.200,207.600 169.830,207.600 170.600 " stroke="none" fill="#f19298" fill-rule="evenodd"></path><path id="path5" d="M131.000 48.775 C 128.767 49.697,128.551 53.150,130.573 55.600 C 130.845 55.930,131.472 57.100,131.966 58.200 C 132.824 60.110,133.746 61.200,134.504 61.200 C 134.697 61.200,134.472 60.662,134.004 60.005 C 130.505 55.092,129.312 50.247,131.387 49.380 C 133.476 48.507,262.924 48.507,265.013 49.380 C 266.598 50.042,266.840 51.194,265.727 52.782 C 265.358 53.310,264.384 55.130,263.564 56.825 C 262.744 58.520,261.877 60.029,261.637 60.177 C 261.397 60.326,261.200 60.734,261.200 61.085 C 261.200 62.213,262.790 60.029,264.452 56.619 C 265.305 54.869,266.182 53.258,266.401 53.039 C 266.905 52.535,266.910 49.994,266.408 49.200 C 265.982 48.526,132.617 48.107,131.000 48.775 M184.500 61.518 C 182.905 61.582,181.600 61.782,181.600 61.961 C 181.600 62.140,182.815 62.235,184.300 62.173 C 200.077 61.515,212.392 61.503,213.372 62.145 C 214.206 62.691,214.400 62.712,214.400 62.254 C 214.400 61.211,200.501 60.869,184.500 61.518 M254.454 89.867 C 254.425 90.344,254.296 91.064,254.170 91.467 C 253.952 92.161,253.964 92.162,254.396 91.488 C 254.647 91.097,254.775 90.377,254.681 89.888 C 254.509 89.001,254.509 89.001,254.454 89.867 M188.538 171.300 C 188.436 171.465,192.593 171.600,197.776 171.600 C 202.959 171.600,207.200 171.465,207.200 171.300 C 207.200 171.135,203.043 171.000,197.962 171.000 C 192.881 171.000,188.641 171.135,188.538 171.300 M160.945 173.100 C 161.055 173.485,161.348 174.823,161.595 176.074 C 162.265 179.452,163.593 180.170,169.200 180.187 C 173.157 180.199,173.483 180.264,174.838 181.300 C 175.629 181.905,176.379 182.400,176.505 182.400 C 176.631 182.400,177.444 183.037,178.312 183.816 C 179.179 184.594,180.615 185.719,181.504 186.316 C 182.896 187.250,184.653 188.616,188.214 191.533 C 188.661 191.900,190.040 193.055,191.277 194.100 C 192.515 195.145,193.893 196.000,194.340 196.000 C 194.983 196.000,195.184 196.311,195.309 197.500 L 195.466 199.000 195.533 197.487 C 195.584 196.332,195.421 195.906,194.843 195.687 C 194.427 195.529,192.075 193.780,189.616 191.800 C 187.158 189.820,184.214 187.522,183.073 186.694 C 180.158 184.577,178.814 183.524,177.850 182.600 C 177.391 182.160,176.720 181.620,176.360 181.400 C 173.479 179.641,173.043 179.520,169.643 179.538 C 164.553 179.565,162.404 178.578,162.398 176.211 C 162.394 174.864,161.590 172.400,161.154 172.400 C 160.930 172.400,160.836 172.715,160.945 173.100 M234.148 172.706 C 233.900 172.868,233.567 173.953,233.409 175.117 C 233.184 176.764,232.840 177.496,231.860 178.415 L 230.600 179.596 225.200 179.604 C 221.649 179.609,219.511 179.781,218.957 180.106 C 217.930 180.708,214.964 182.858,213.600 183.990 C 213.050 184.446,211.250 185.905,209.600 187.231 C 199.288 195.520,198.402 197.213,201.176 203.316 C 201.598 204.242,202.318 206.408,202.778 208.129 C 203.237 209.850,203.880 211.897,204.207 212.678 C 204.533 213.459,204.800 214.445,204.800 214.869 C 204.800 215.293,205.064 216.150,205.386 216.773 C 205.709 217.397,206.421 219.503,206.970 221.453 C 208.310 226.221,209.559 229.983,210.207 231.213 C 210.501 231.770,211.013 233.390,211.344 234.813 C 212.184 238.425,213.579 241.508,213.591 239.780 C 213.596 239.109,213.399 238.359,213.153 238.113 C 212.907 237.867,212.381 236.302,211.984 234.635 C 211.586 232.968,210.978 231.321,210.631 230.974 C 210.284 230.627,210.000 229.801,210.000 229.140 C 210.000 228.478,209.557 226.826,209.015 225.468 C 208.473 224.111,207.733 221.830,207.370 220.400 C 207.006 218.970,206.446 217.287,206.123 216.659 C 205.801 216.032,205.485 214.772,205.422 213.859 C 205.358 212.947,204.836 211.090,204.262 209.734 C 203.688 208.378,203.026 206.398,202.791 205.334 C 202.555 204.270,201.987 202.619,201.528 201.664 C 200.398 199.313,200.711 195.321,202.097 194.400 C 202.594 194.070,203.807 193.035,204.793 192.100 C 205.779 191.165,206.718 190.400,206.879 190.400 C 207.040 190.400,208.221 189.422,209.503 188.226 C 210.786 187.030,212.817 185.385,214.018 184.570 C 215.218 183.755,216.945 182.488,217.855 181.754 L 219.509 180.421 225.464 180.276 C 232.745 180.098,233.768 179.748,233.868 177.395 C 233.905 176.518,234.111 175.035,234.326 174.100 C 234.540 173.165,234.689 172.403,234.657 172.406 C 234.626 172.409,234.397 172.544,234.148 172.706 M186.673 179.514 C 181.264 179.656,181.262 179.639,187.300 184.453 C 197.767 192.799,196.789 192.422,200.314 189.466 C 203.656 186.663,209.760 181.653,210.493 181.112 C 212.701 179.480,205.736 179.012,186.673 179.514 M209.766 180.346 C 209.971 180.677,202.516 187.219,201.565 187.542 C 201.334 187.621,200.431 188.386,199.557 189.242 C 197.631 191.130,196.796 191.181,194.720 189.537 C 193.843 188.842,192.467 187.834,191.662 187.296 C 190.858 186.759,189.750 185.871,189.200 185.323 C 188.650 184.775,187.086 183.462,185.725 182.405 C 184.364 181.348,183.348 180.385,183.468 180.266 C 183.845 179.888,209.532 179.966,209.766 180.346 M193.896 200.549 C 192.852 201.661,192.094 203.981,192.539 204.701 C 192.659 204.896,192.304 206.032,191.750 207.227 C 191.196 208.422,190.477 210.547,190.151 211.950 C 189.826 213.352,189.119 215.850,188.580 217.501 C 188.041 219.152,187.600 220.817,187.600 221.202 C 187.600 221.587,187.354 222.106,187.053 222.356 C 186.753 222.605,186.193 223.842,185.811 225.105 C 185.428 226.367,184.774 228.132,184.358 229.026 C 183.941 229.921,183.600 231.122,183.600 231.696 C 183.600 232.270,183.060 234.088,182.400 235.736 C 181.740 237.385,181.200 239.298,181.200 239.989 C 181.200 241.080,180.284 243.706,179.243 245.600 C 178.955 246.123,175.423 246.213,151.869 246.303 C 125.663 246.402,124.812 246.429,124.414 247.174 C 123.915 248.107,124.169 248.885,125.145 249.408 C 126.006 249.870,128.606 251.712,130.782 253.400 C 131.633 254.060,132.924 255.050,133.653 255.600 C 134.381 256.150,135.943 257.380,137.123 258.333 C 138.304 259.286,139.787 260.246,140.418 260.466 C 141.050 260.687,141.663 261.168,141.780 261.537 C 141.897 261.906,142.341 262.386,142.767 262.604 C 143.193 262.822,144.731 263.853,146.184 264.896 C 147.637 265.938,149.257 266.899,149.784 267.032 C 150.311 267.164,150.835 267.513,150.948 267.808 C 151.135 268.296,155.832 271.741,158.299 273.200 C 159.318 273.803,160.209 274.522,162.800 276.832 C 163.570 277.519,164.740 278.354,165.400 278.689 C 167.805 279.907,168.049 280.313,167.352 281.949 C 167.011 282.747,166.367 284.840,165.920 286.600 C 165.473 288.360,164.942 290.006,164.740 290.258 C 164.537 290.510,164.204 291.746,163.999 293.004 C 163.795 294.262,163.274 296.036,162.843 296.946 C 162.412 297.856,161.754 299.860,161.382 301.400 C 161.010 302.940,160.457 304.484,160.153 304.831 C 159.841 305.187,159.620 306.236,159.646 307.231 L 159.692 309.000 159.972 307.600 C 160.126 306.830,160.494 305.753,160.790 305.207 C 161.086 304.661,161.642 303.041,162.025 301.607 C 162.619 299.392,163.407 296.963,164.818 293.000 C 164.975 292.560,165.507 290.760,166.001 289.000 C 166.495 287.240,167.237 284.957,167.650 283.926 C 168.620 281.501,168.585 279.200,167.577 279.200 C 167.069 279.200,163.600 276.789,163.600 276.436 C 163.600 276.267,163.195 275.943,162.700 275.717 C 162.205 275.491,161.054 274.697,160.142 273.953 C 158.019 272.221,150.929 267.215,143.500 262.202 C 142.675 261.645,142.000 261.015,142.000 260.800 C 142.000 260.586,141.415 260.141,140.700 259.811 C 139.985 259.481,138.649 258.624,137.732 257.906 C 136.815 257.188,134.205 255.259,131.932 253.619 C 129.659 251.980,127.329 250.270,126.754 249.819 C 126.178 249.369,125.388 248.813,124.998 248.584 C 124.328 248.192,124.327 248.130,124.973 247.484 C 125.605 246.852,127.697 246.800,152.400 246.800 C 174.242 246.800,179.241 246.702,179.680 246.263 C 179.975 245.968,180.721 244.123,181.338 242.163 C 181.954 240.203,182.881 237.250,183.396 235.600 C 186.434 225.883,187.295 223.318,187.758 222.600 C 188.042 222.160,188.398 221.016,188.549 220.058 C 188.700 219.100,189.089 217.802,189.414 217.174 C 189.738 216.546,190.280 214.810,190.618 213.316 C 190.955 211.822,191.661 209.520,192.187 208.200 C 192.713 206.880,193.239 205.099,193.356 204.243 C 193.473 203.386,193.952 202.277,194.420 201.778 C 194.889 201.279,195.205 200.540,195.123 200.136 C 194.992 199.488,194.844 199.538,193.896 200.549 M213.632 243.011 C 213.530 246.896,213.238 246.858,243.140 246.814 C 273.240 246.770,272.473 246.674,268.100 249.933 C 263.650 253.249,259.785 256.066,257.803 257.436 C 256.701 258.197,254.720 259.629,253.400 260.617 C 252.080 261.606,250.595 262.620,250.100 262.871 C 249.605 263.123,249.200 263.474,249.200 263.653 C 249.200 263.832,248.075 264.691,246.700 265.563 C 245.325 266.435,243.570 267.618,242.800 268.191 C 242.030 268.764,240.140 270.157,238.600 271.286 C 237.060 272.416,235.136 273.849,234.323 274.470 C 233.511 275.092,232.561 275.600,232.211 275.600 C 231.861 275.600,231.475 275.860,231.353 276.178 C 231.231 276.496,230.135 277.508,228.918 278.427 L 226.705 280.098 226.957 281.949 C 227.096 282.967,227.637 284.970,228.158 286.400 C 229.490 290.054,231.101 295.507,231.408 297.400 C 231.551 298.280,231.912 299.272,232.210 299.605 C 232.508 299.938,232.965 301.108,233.225 302.205 C 233.486 303.302,234.100 305.280,234.590 306.600 C 235.902 310.132,237.891 316.393,238.210 318.000 C 238.364 318.770,238.716 319.670,238.994 320.000 C 239.271 320.330,239.723 321.590,239.998 322.800 C 240.274 324.010,241.041 326.425,241.705 328.168 C 242.577 330.461,242.801 331.510,242.514 331.968 C 241.943 332.881,240.614 332.956,239.781 332.124 C 239.386 331.729,238.760 331.224,238.392 331.003 C 236.860 330.083,232.596 326.922,231.509 325.900 C 230.865 325.295,230.206 324.800,230.045 324.800 C 229.883 324.800,228.232 323.622,226.376 322.183 C 224.519 320.743,222.370 319.126,221.600 318.589 C 220.830 318.052,219.210 316.887,218.000 316.000 C 216.790 315.113,215.125 313.938,214.300 313.389 C 213.475 312.839,212.800 312.212,212.800 311.995 C 212.800 311.778,212.574 311.600,212.297 311.600 C 212.021 311.600,210.176 310.425,208.197 308.988 C 196.399 300.423,197.480 300.954,195.388 302.700 C 194.664 303.305,193.470 304.214,192.736 304.719 C 192.001 305.225,188.652 307.610,185.294 310.019 C 181.935 312.429,179.061 314.400,178.908 314.400 C 178.754 314.400,178.262 314.765,177.814 315.211 C 177.366 315.658,175.507 317.143,173.682 318.511 C 171.857 319.880,169.697 321.500,168.882 322.110 C 165.482 324.657,162.667 326.639,161.612 327.228 C 160.993 327.574,160.184 328.159,159.815 328.528 C 159.445 328.898,158.929 329.200,158.668 329.200 C 158.406 329.200,157.974 329.549,157.707 329.977 C 156.226 332.349,152.108 333.358,152.538 331.243 C 153.082 328.573,154.364 324.302,156.272 318.800 C 156.616 317.810,157.158 315.920,157.477 314.600 C 157.796 313.280,158.421 311.811,158.865 311.336 C 160.036 310.082,159.733 309.045,158.400 309.742 C 157.850 310.030,157.448 310.484,157.506 310.751 C 157.677 311.535,156.439 316.079,155.639 317.600 C 155.234 318.370,154.802 319.911,154.679 321.024 C 154.556 322.138,154.016 324.208,153.479 325.624 C 150.193 334.290,151.251 336.069,156.912 331.400 C 158.378 330.190,159.744 329.200,159.947 329.200 C 160.149 329.200,160.418 328.930,160.545 328.600 C 160.671 328.270,161.149 328.000,161.606 328.000 C 162.063 328.000,162.894 327.542,163.454 326.982 C 164.014 326.423,165.130 325.529,165.936 324.996 C 167.831 323.742,171.135 321.254,175.229 318.000 C 177.027 316.570,178.915 315.130,179.423 314.800 C 180.596 314.038,191.692 306.332,193.745 304.853 C 194.594 304.241,195.458 303.439,195.665 303.070 C 196.213 302.090,197.908 302.252,199.345 303.421 C 201.838 305.450,205.519 308.000,205.955 308.000 C 206.200 308.000,206.401 308.135,206.403 308.300 C 206.404 308.465,207.078 309.050,207.899 309.600 C 208.721 310.150,209.774 311.004,210.240 311.498 C 210.706 311.991,211.915 312.761,212.927 313.209 C 213.939 313.657,214.869 314.189,214.995 314.391 C 215.308 314.898,219.689 318.208,220.853 318.817 C 221.374 319.090,222.520 319.932,223.400 320.690 C 226.046 322.966,229.708 325.600,230.227 325.600 C 230.495 325.600,230.815 325.862,230.938 326.183 C 231.061 326.504,232.161 327.430,233.381 328.240 C 234.601 329.050,235.600 329.840,235.600 329.996 C 235.600 330.151,236.282 330.586,237.115 330.962 C 237.948 331.337,238.803 332.040,239.015 332.522 C 239.702 334.089,243.008 333.904,243.417 332.275 C 243.550 331.746,243.203 330.193,242.592 328.581 C 242.013 327.052,241.195 324.561,240.775 323.047 C 240.355 321.534,239.842 320.091,239.635 319.843 C 239.429 319.594,238.989 318.312,238.659 316.995 C 238.328 315.678,237.602 313.340,237.046 311.800 C 236.489 310.260,236.026 308.765,236.017 308.478 C 236.008 308.191,235.628 307.140,235.174 306.142 C 234.719 305.145,234.158 303.253,233.926 301.939 C 233.685 300.570,233.125 299.090,232.616 298.475 C 232.114 297.870,231.533 296.351,231.286 295.000 C 230.672 291.655,229.252 286.461,228.613 285.224 C 226.970 282.048,227.775 279.035,230.499 278.169 C 230.884 278.047,231.308 277.509,231.442 276.973 C 231.610 276.305,231.967 276.000,232.582 276.000 C 233.075 276.000,233.910 275.620,234.439 275.156 C 234.967 274.692,236.300 273.702,237.400 272.955 C 239.662 271.420,242.564 269.204,243.893 267.997 C 244.384 267.550,245.194 267.001,245.693 266.776 C 247.343 266.030,248.433 265.315,249.237 264.452 C 249.674 263.984,250.263 263.600,250.546 263.600 C 250.829 263.600,251.494 263.139,252.023 262.575 C 252.553 262.011,253.619 261.168,254.393 260.702 C 255.167 260.236,256.610 259.195,257.600 258.389 C 258.590 257.583,260.390 256.256,261.600 255.439 C 262.810 254.623,264.250 253.601,264.800 253.168 C 267.746 250.851,270.574 248.800,270.823 248.800 C 271.517 248.800,271.490 247.169,270.790 246.795 C 270.326 246.546,260.193 246.400,243.474 246.400 L 216.896 246.400 215.510 244.700 C 214.748 243.765,214.020 242.730,213.894 242.400 C 213.766 242.069,213.649 242.342,213.632 243.011 " stroke="none" fill="#f6f2c0" fill-rule="evenodd"></path><path id="path6" d="M135.600 61.541 C 135.600 61.948,136.041 64.063,136.579 66.241 C 137.118 68.418,138.112 72.540,138.787 75.400 C 139.463 78.260,140.189 81.320,140.399 82.200 C 143.332 94.448,144.597 99.659,145.446 103.000 C 146.005 105.200,146.711 107.990,147.015 109.200 C 147.651 111.738,150.940 125.356,151.845 129.200 C 152.182 130.630,152.616 132.430,152.810 133.200 C 153.004 133.970,153.699 136.850,154.354 139.600 C 155.010 142.350,155.932 146.130,156.404 148.000 C 156.876 149.870,157.535 152.570,157.867 154.000 C 158.200 155.430,158.626 157.230,158.814 158.000 C 159.003 158.770,159.784 162.010,160.551 165.200 C 162.193 172.031,162.319 172.400,163.024 172.400 C 163.473 172.400,163.470 172.216,163.012 171.300 C 162.708 170.695,162.275 169.480,162.049 168.600 C 161.823 167.720,161.374 166.010,161.052 164.800 C 160.729 163.590,159.622 159.000,158.591 154.600 C 157.560 150.200,156.555 146.060,156.357 145.400 C 156.160 144.740,155.453 141.860,154.787 139.000 C 153.293 132.584,151.532 125.296,150.391 120.800 C 149.916 118.930,149.282 116.230,148.982 114.800 C 148.681 113.370,147.149 107.160,145.576 101.000 C 144.004 94.840,142.581 89.080,142.414 88.200 C 142.247 87.320,141.718 84.980,141.237 83.000 C 140.757 81.020,139.838 77.240,139.196 74.600 C 136.529 63.637,136.048 61.446,136.243 61.131 C 136.355 60.949,136.257 60.800,136.024 60.800 C 135.791 60.800,135.600 61.133,135.600 61.541 M259.600 61.792 C 259.600 62.425,259.432 63.496,259.226 64.172 C 258.783 65.627,257.905 69.119,257.006 73.000 C 256.650 74.540,256.191 76.430,255.987 77.200 C 255.784 77.970,255.062 80.940,254.384 83.800 C 253.707 86.660,252.713 90.723,252.177 92.829 C 251.641 94.934,251.032 97.454,250.824 98.429 C 250.451 100.173,248.836 106.936,247.200 113.600 C 246.741 115.470,246.183 117.581,245.960 118.291 C 245.737 119.001,245.397 120.441,245.204 121.491 C 245.011 122.541,244.504 124.660,244.078 126.200 C 243.651 127.740,242.731 131.520,242.033 134.600 C 241.334 137.680,240.592 140.749,240.384 141.421 C 240.176 142.093,239.828 143.443,239.612 144.421 C 239.006 147.159,238.162 150.534,237.917 151.200 C 237.796 151.530,237.398 153.240,237.034 155.000 C 236.669 156.760,236.202 158.830,235.995 159.600 C 235.788 160.370,235.243 162.620,234.784 164.600 C 234.325 166.580,233.781 168.513,233.575 168.895 C 233.369 169.277,233.200 169.939,233.200 170.366 C 233.200 170.793,232.917 171.426,232.571 171.771 C 232.021 172.322,232.018 172.400,232.548 172.400 C 233.483 172.400,234.230 169.883,237.415 156.000 C 237.794 154.350,238.463 151.650,238.903 150.000 C 239.342 148.350,239.832 146.370,239.991 145.600 C 240.151 144.830,240.482 143.480,240.726 142.600 C 240.971 141.720,241.650 138.930,242.234 136.400 C 242.818 133.870,243.739 130.090,244.280 128.000 C 244.821 125.910,245.411 123.480,245.592 122.600 C 245.773 121.720,246.199 119.830,246.540 118.400 C 247.121 115.959,247.580 114.082,250.164 103.600 C 250.734 101.290,251.373 98.770,251.584 98.000 C 251.950 96.666,254.986 83.915,256.250 78.400 C 256.578 76.970,257.002 75.260,257.192 74.600 C 257.383 73.940,257.936 71.690,258.421 69.600 C 258.906 67.510,259.549 64.819,259.850 63.619 C 260.215 62.168,260.265 61.305,259.999 61.039 C 259.734 60.774,259.600 61.025,259.600 61.792 M179.244 61.854 C 179.780 62.499,179.924 64.011,180.761 77.800 C 181.159 84.349,181.705 92.233,182.618 104.600 C 183.951 122.659,184.677 133.224,185.203 142.200 C 185.409 145.720,185.758 150.850,185.978 153.600 C 186.937 165.557,187.165 170.960,186.733 171.481 C 186.407 171.873,186.475 172.000,187.010 172.000 C 187.823 172.000,187.574 165.235,186.023 145.200 C 185.640 140.244,185.400 136.649,184.382 120.600 C 184.187 117.520,183.746 111.400,183.403 107.000 C 183.060 102.600,182.610 96.210,182.403 92.800 C 182.196 89.390,181.844 84.170,181.621 81.200 C 181.398 78.230,181.014 72.650,180.768 68.800 C 180.290 61.290,180.273 61.200,179.327 61.200 C 178.794 61.200,178.782 61.296,179.244 61.854 M215.442 62.900 C 215.242 64.549,214.634 73.259,214.207 80.600 C 214.092 82.580,213.723 87.800,213.388 92.200 C 213.052 96.600,212.610 103.260,212.405 107.000 C 212.199 110.740,211.846 116.320,211.620 119.400 C 211.394 122.480,210.937 128.690,210.604 133.200 C 209.248 151.563,208.292 166.439,208.227 170.163 C 208.210 171.141,208.403 171.795,208.742 171.911 C 209.119 172.039,209.211 171.865,209.044 171.338 C 208.752 170.417,209.348 157.833,210.188 147.200 C 210.871 138.554,211.812 125.092,212.396 115.600 C 212.606 112.190,212.961 107.330,213.185 104.800 C 213.410 102.270,213.595 98.638,213.597 96.729 C 213.598 94.820,213.779 91.940,213.997 90.329 C 214.215 88.718,214.568 84.610,214.780 81.200 C 215.624 67.648,216.104 62.178,216.492 61.700 C 216.784 61.340,216.723 61.200,216.273 61.200 C 215.838 61.200,215.587 61.714,215.442 62.900 " stroke="none" fill="#d46c84" fill-rule="evenodd"></path><path id="path7" d="M134.400 61.776 C 134.400 62.093,134.557 62.450,134.748 62.568 C 134.940 62.686,135.201 63.642,135.329 64.692 C 135.457 65.741,135.850 67.590,136.204 68.800 C 136.557 70.010,137.122 72.170,137.460 73.600 C 137.798 75.030,138.344 77.280,138.674 78.600 C 139.004 79.920,139.411 81.900,139.579 83.000 C 139.943 85.397,140.887 88.921,141.239 89.200 C 141.378 89.310,141.675 90.570,141.900 92.000 C 142.124 93.430,142.668 95.950,143.109 97.600 C 143.550 99.250,144.029 101.401,144.173 102.380 C 144.317 103.359,144.573 104.349,144.741 104.580 C 144.910 104.811,145.364 106.350,145.750 108.000 C 146.137 109.650,146.708 111.900,147.019 113.000 C 147.330 114.100,148.133 117.293,148.803 120.095 C 149.473 122.897,150.186 125.597,150.386 126.095 L 150.749 127.000 150.775 126.119 C 150.789 125.634,150.632 124.824,150.427 124.319 C 150.222 123.813,149.209 119.800,148.177 115.400 C 147.145 111.000,146.155 107.040,145.979 106.600 C 145.802 106.160,145.260 104.090,144.773 102.000 C 144.287 99.910,143.539 96.850,143.110 95.200 C 142.682 93.550,142.180 91.390,141.996 90.400 C 141.812 89.410,141.274 87.070,140.800 85.200 C 139.791 81.213,138.247 74.856,136.355 66.901 C 135.172 61.925,134.400 59.902,134.400 61.776 M260.464 62.800 C 260.204 63.790,259.813 65.251,259.595 66.046 C 259.040 68.079,259.161 68.827,259.814 67.400 C 260.117 66.740,260.372 65.693,260.382 65.074 C 260.392 64.454,260.591 63.590,260.825 63.153 C 261.059 62.716,261.180 62.053,261.094 61.679 C 261.007 61.299,260.729 61.793,260.464 62.800 M180.806 62.100 C 180.810 62.375,181.081 66.830,181.410 72.000 C 181.739 77.170,182.192 84.550,182.418 88.400 C 182.644 92.250,182.977 96.930,183.160 98.800 L 183.491 102.200 183.543 99.200 C 183.572 97.550,183.321 92.870,182.986 88.800 C 182.650 84.730,182.478 80.770,182.603 80.000 C 182.728 79.230,182.554 75.990,182.216 72.800 C 181.878 69.610,181.601 65.785,181.601 64.300 C 181.600 62.767,181.427 61.600,181.200 61.600 C 180.980 61.600,180.803 61.825,180.806 62.100 M214.370 62.800 C 214.341 63.570,214.175 66.540,214.003 69.400 C 213.830 72.260,213.482 78.380,213.229 83.000 C 212.977 87.620,212.593 92.750,212.377 94.400 C 211.881 98.193,211.173 110.091,211.009 117.400 C 210.859 124.106,211.186 120.787,211.954 107.800 C 212.202 103.620,212.498 99.660,212.614 99.000 C 212.730 98.340,212.995 94.650,213.204 90.800 C 213.833 79.215,214.769 65.570,215.031 64.176 C 215.166 63.455,215.085 62.536,214.850 62.133 C 214.487 61.508,214.416 61.607,214.370 62.800 M258.854 69.676 C 258.825 70.268,258.620 70.864,258.400 71.000 C 258.180 71.136,258.000 71.745,258.000 72.352 C 258.000 72.960,257.748 74.255,257.441 75.229 C 257.134 76.203,256.576 78.440,256.201 80.200 C 255.827 81.960,255.101 85.110,254.588 87.200 C 254.075 89.290,253.095 93.340,252.411 96.200 C 250.283 105.090,249.884 106.588,249.537 106.980 C 249.352 107.189,249.203 107.729,249.206 108.180 C 249.221 110.229,251.117 104.838,252.013 100.200 C 252.267 98.880,252.718 97.080,253.014 96.200 C 253.311 95.320,253.860 92.980,254.236 91.000 C 254.611 89.020,255.055 87.220,255.222 87.000 C 255.389 86.780,255.741 85.520,256.004 84.200 C 257.453 76.924,258.570 71.985,258.958 71.129 C 259.126 70.760,259.184 70.040,259.086 69.529 C 258.924 68.679,258.904 68.692,258.854 69.676 M183.904 106.600 C 184.015 108.800,184.234 112.400,184.390 114.600 L 184.675 118.600 184.737 112.780 C 184.772 109.579,184.631 106.789,184.424 106.580 C 184.217 106.371,183.970 105.390,183.875 104.400 C 183.780 103.410,183.793 104.400,183.904 106.600 M248.447 111.914 C 248.143 113.296,247.983 114.516,248.092 114.625 C 248.415 114.948,249.283 111.400,249.136 110.359 C 249.048 109.739,248.804 110.289,248.447 111.914 M247.473 116.000 C 247.039 117.703,244.494 128.439,243.775 131.600 C 243.400 133.250,242.293 137.750,241.316 141.600 C 239.659 148.133,235.728 164.536,234.591 169.666 C 234.315 170.912,233.954 172.151,233.789 172.418 C 233.596 172.729,233.688 172.838,234.044 172.721 C 234.350 172.621,234.651 171.922,234.712 171.169 C 234.774 170.416,234.993 169.440,235.199 169.000 C 235.569 168.211,236.093 166.026,238.175 156.600 C 238.758 153.960,239.430 151.260,239.668 150.600 C 239.906 149.940,240.189 148.770,240.298 148.000 C 240.406 147.230,240.654 146.401,240.849 146.157 C 241.043 145.914,241.368 144.924,241.570 143.957 C 241.773 142.991,242.294 140.670,242.729 138.800 C 243.675 134.728,244.379 131.571,244.823 129.400 C 245.475 126.215,246.349 122.537,247.187 119.456 C 247.657 117.726,247.971 116.016,247.885 115.656 C 247.773 115.190,247.654 115.289,247.473 116.000 M185.000 123.000 C 185.386 131.637,185.992 141.617,186.396 146.000 C 186.629 148.530,187.070 154.110,187.375 158.400 L 187.930 166.200 187.807 160.200 C 187.634 151.813,186.879 139.671,186.439 138.217 C 186.237 137.548,185.964 133.580,185.833 129.400 C 185.701 125.220,185.420 121.170,185.208 120.400 C 184.916 119.342,184.865 119.978,185.000 123.000 M210.467 125.000 C 210.424 125.440,210.109 128.860,209.766 132.600 C 209.423 136.340,208.984 141.110,208.791 143.200 C 208.597 145.290,208.430 148.632,208.419 150.627 C 208.409 152.621,208.233 155.231,208.028 156.427 C 207.574 159.080,207.216 172.082,207.660 169.800 C 207.832 168.920,208.250 163.430,208.591 157.600 C 209.456 142.798,209.916 136.405,210.432 132.000 C 210.677 129.910,210.803 127.300,210.711 126.200 C 210.619 125.100,210.509 124.560,210.467 125.000 M150.857 128.200 C 150.861 129.593,151.925 132.669,151.963 131.400 C 151.977 130.960,151.733 129.790,151.421 128.800 C 150.926 127.229,150.854 127.152,150.857 128.200 M152.192 134.000 C 152.374 135.872,152.934 138.394,154.360 143.764 C 154.822 145.504,155.206 147.304,155.214 147.764 C 155.222 148.224,155.486 149.050,155.800 149.600 L 156.372 150.600 156.386 149.674 C 156.394 149.164,156.226 148.423,156.014 148.026 C 155.801 147.629,155.456 146.335,155.247 145.152 C 154.314 139.880,151.910 131.103,152.192 134.000 M156.427 151.400 C 156.382 152.737,157.438 157.273,158.424 159.979 C 159.441 162.768,160.006 162.722,159.073 159.926 C 158.757 158.977,158.182 156.850,157.796 155.200 C 156.921 151.456,156.468 150.199,156.427 151.400 M159.644 164.203 C 159.620 164.864,159.793 166.034,160.029 166.803 C 160.265 167.571,160.580 169.085,160.729 170.167 C 160.878 171.249,161.202 172.202,161.449 172.284 C 161.741 172.381,161.631 171.348,161.133 169.316 C 160.712 167.602,160.215 165.480,160.028 164.600 C 159.722 163.162,159.683 163.122,159.644 164.203 M188.050 169.180 C 188.019 170.777,188.142 171.615,188.372 171.380 C 188.592 171.156,188.612 170.095,188.422 168.800 L 188.100 166.600 188.050 169.180 " stroke="none" fill="#fbc1c3" fill-rule="evenodd"></path></g></svg>